<svg width="16" height="12" viewBox="0 0 16 12" fill="none" xmlns="http://www.w3.org/2000/svg">
<path d="M9.552 8.15151C9.552 6.74351 9.92 5.39951 10.656 4.11951C11.392 2.80751 12.336 1.73551 13.488 0.903511L15.264 2.39151C14.464 2.90351 13.776 3.59151 13.2 4.45551C12.592 5.28751 12.24 6.08751 12.144 6.85551C12.272 6.79151 12.496 6.75951 12.816 6.75951C13.488 6.75951 14.048 6.98351 14.496 7.43151C14.912 7.91151 15.12 8.50351 15.12 9.20751C15.12 9.91151 14.88 10.5195 14.4 11.0315C13.888 11.5435 13.28 11.7995 12.576 11.7995C11.744 11.7995 11.04 11.4635 10.464 10.7915C9.856 10.1515 9.552 9.27151 9.552 8.15151ZM0.889502 8.15151C0.889502 6.74351 1.2575 5.39951 1.9935 4.11951C2.7295 2.80751 3.6735 1.73551 4.8255 0.90351L6.6015 2.39151C5.8015 2.90351 5.1135 3.59151 4.5375 4.45551C3.9295 5.28751 3.5775 6.08751 3.4815 6.85551C3.6095 6.79151 3.8335 6.75951 4.1535 6.75951C4.8255 6.75951 5.3855 6.98351 5.8335 7.43151C6.2495 7.91151 6.4575 8.50351 6.4575 9.20751C6.4575 9.91151 6.2175 10.5195 5.7375 11.0315C5.2255 11.5435 4.6175 11.7995 3.9135 11.7995C3.0815 11.7995 2.3775 11.4635 1.8015 10.7915C1.1935 10.1515 0.889501 9.27151 0.889502 8.15151Z" fill="#C4C4C4"/>
</svg>
