<svg width="16" height="12" viewBox="0 0 16 12" fill="none" xmlns="http://www.w3.org/2000/svg">
<path d="M6.44801 3.848C6.44801 5.256 6.08001 6.6 5.34401 7.88C4.60801 9.192 3.66401 10.264 2.51201 11.096L0.736006 9.608C1.53601 9.096 2.22401 8.408 2.80001 7.544C3.40801 6.712 3.76001 5.912 3.85601 5.144C3.72801 5.208 3.50401 5.24 3.18401 5.24C2.51201 5.24 1.95201 5.016 1.50401 4.568C1.08801 4.088 0.880005 3.496 0.880005 2.792C0.880005 2.088 1.12 1.48 1.6 0.967999C2.112 0.455999 2.72 0.199999 3.424 0.199999C4.25601 0.199999 4.96001 0.535999 5.53601 1.208C6.14401 1.848 6.44801 2.728 6.44801 3.848ZM15.1105 3.848C15.1105 5.256 14.7425 6.6 14.0065 7.88C13.2705 9.192 12.3265 10.264 11.1745 11.096L9.39851 9.608C10.1985 9.096 10.8865 8.408 11.4625 7.544C12.0705 6.712 12.4225 5.912 12.5185 5.144C12.3905 5.208 12.1665 5.24 11.8465 5.24C11.1745 5.24 10.6145 5.016 10.1665 4.568C9.75051 4.088 9.54251 3.496 9.54251 2.792C9.54251 2.088 9.78251 1.48 10.2625 0.967998C10.7745 0.455998 11.3825 0.199998 12.0865 0.199997C12.9185 0.199997 13.6225 0.535997 14.1985 1.208C14.8065 1.848 15.1105 2.728 15.1105 3.848Z" fill="#C4C4C4"/>
</svg>
